<?xml version="1.0" encoding="UTF-8"?>
<svg width="74px" height="74px" viewBox="0 0 74 74" version="1.1" xmlns="http://www.w3.org/2000/svg" xmlns:xlink="http://www.w3.org/1999/xlink">
    <title>lock-icon</title>
    <g id="1.0.0-Skyport" stroke="none" stroke-width="1" fill="none" fill-rule="evenodd">
        <g id="Icons" transform="translate(-243.000000, -80.000000)" fill="#7C848E" fill-rule="nonzero">
            <path d="M280.000176,80 C273.692381,80 267.643057,82.1920913 263.179271,86.0943498 C258.71945,89.9996917 256.214286,95.2934556 256.214286,100.812611 L256.214286,112.375087 L253.571429,112.375087 C247.731683,112.375087 243,116.515301 243,121.625067 L243,144.750019 C243,149.859786 247.731683,154 253.571429,154 L306.428571,154 C312.268317,154 317,149.859786 317,144.750019 L317,121.625067 C317,116.515301 312.268317,112.375087 306.428571,112.375087 L303.785714,112.375087 L303.785714,100.812611 C303.785714,95.2933015 301.280462,90.0001542 296.820729,86.0943498 C292.357471,82.1920142 286.307443,80 279.999824,80 L280.000176,80 Z M291,113 L270,113 L270,101.333333 C270,96.1775222 274.699712,92 280.5,92 C286.300287,92 291,96.1775222 291,101.333333 L291,113 Z" id="lock-icon"></path>
        </g>
    </g>
</svg>