<?xml version="1.0" encoding="UTF-8"?>
<svg width="177px" height="39px" viewBox="0 0 177 39" version="1.1" xmlns="http://www.w3.org/2000/svg" xmlns:xlink="http://www.w3.org/1999/xlink">
    <title>Group 10 Copy 2</title>
    <g id="1.0.0-Skyport" stroke="none" stroke-width="1" fill="none" fill-rule="evenodd">
        <g id="Group-10-Copy-2">
            <path d="M91.4691459,13.6264339 C91.446745,13.9182045 91.356632,13.9501247 91.2054255,13.7600998 C90.2442206,12.5476309 88.8991446,11.6503741 88.5188374,11.6468828 L88.5188374,11.6478803 C88.5122189,11.6473815 88.5061095,11.6473815 88.5000002,11.6468828 C88.4938908,11.6473815 88.4877815,11.6473815 88.481163,11.6478803 L88.481163,11.6468828 C88.1003467,11.6503741 86.7557798,12.5476309 85.7940658,13.7600998 C85.6433684,13.9501247 85.5532554,13.9182045 85.5308544,13.6264339 C85.4707791,12.8548628 85.4509237,10.872818 85.4962348,10.7411471 C86.1769186,8.75610973 88.0560538,7.13965087 88.4877815,7.13965087 C88.4913453,7.13965087 88.4959273,7.14014963 88.5000002,7.14014963 C88.5040731,7.14014963 88.5086551,7.13965087 88.5122189,7.13965087 C88.9439465,7.13965087 90.8225727,8.75610973 91.5037656,10.7411471 C91.5490767,10.872818 91.5292213,12.8548628 91.4691459,13.6264339 M96.9309079,8.86184539 C95.0314081,3.97805486 89.790092,0 88.5865494,0 C88.5585482,0 88.5290196,0.00149625935 88.5,0.0029925187 C88.4709808,0.00149625935 88.4414522,0 88.413451,0 C87.2099084,0 81.9685923,3.97805486 80.0690925,8.86184539 C79.552343,10.1915212 82.08467,28.6339152 82.6696406,31.3705736 C82.7495713,31.7441397 83.0015821,32 83.2877035,32 L86.2415759,32 C86.1534994,31.0902743 86.0725504,30.1501247 86.0022929,29.2319202 C85.7955931,26.5226933 85.4768885,21.9102244 85.6667876,21.4508728 C86.1682637,20.236409 87.4945025,18.6094763 88.4755628,18.6094763 L88.5234194,18.6094763 C89.5044797,18.6094763 90.8307185,20.236409 91.3321946,21.4508728 C91.5455129,21.9680798 91.1468776,27.5127182 90.6835849,32 L93.7122969,32 C93.9989274,32 94.2504291,31.7441397 94.3298507,31.3705736 C94.9153304,28.6339152 97.4476574,10.1915212 96.9309079,8.86184539" id="Fill-1" fill="#7F8184"></path>
            <path d="M77.1524819,37 C76.1834495,36.0433483 74.0225918,27.0707524 74.0000779,24.5600399 C73.9935114,23.8091679 74.4025125,23.1604385 74.9686413,22.486298 C75.5361772,21.8106627 77.9981573,19.7359243 79.232196,19 C79.6538611,23.4349776 80.7561003,30.079721 81,31.5710015 C80.4380926,33.0667663 78.3091294,36.5864474 77.1524819,37" id="Fill-3" fill="#6D6E6F"></path>
            <path d="M98.8475181,37 C99.8160815,36.0433483 101.977408,27.0707524 101.999922,24.5600399 C102.006489,23.8091679 101.597488,23.1604385 101.031359,22.486298 C100.463823,21.8106627 98.0018427,19.7359243 96.767804,19 C96.3461389,23.4349776 95.2438997,30.079721 95,31.5710015 C95.5619074,33.0667663 97.6908706,36.5864474 98.8475181,37" id="Fill-5" fill="#7F8184"></path>
            <path d="M175.821311,4 L161.794974,4 C161.621456,6.1812371 158.223576,10.6582329 156,12 L168.255438,12 C170.603538,12 171.601264,11.7219522 173.408907,9.9141088 C175.19971,8.12331047 176.386774,6.16472468 176.894057,5.02643318 C177.159437,4.42932286 176.970099,4 175.821311,4" id="Fill-7" fill="#6C9F9A"></path>
            <path d="M158.843166,4.0300588 C158.016409,4.0300588 112.190044,3.9624265 109.031834,4.0300588 C107.303161,4.06708378 106.174764,4.63578753 105.159607,5.52438712 C104.08783,6.46383436 97.1596096,14.9326822 97.1525947,14.9998208 C97.0974776,15.5428539 97.0208148,16.4433015 97.0022754,16.9256136 C96.9832349,17.4074321 97.076934,17.5550383 97.5414209,17.9178832 C97.7679021,18.0946157 98.7815557,18.7279898 99.1323009,19 C101.262828,16.7034637 103.862351,14.2968398 105.52338,12.9323458 C107.063151,11.666585 108.255184,11.4444351 111.488053,11.4444351 L151.414883,11.4444351 C153.720281,11.4444351 154.699362,11.1867412 156.474633,9.51123731 C158.232368,7.85153073 159.397844,6.03631922 159.895902,4.98135404 C160.156456,4.42795395 159.971062,4.0300588 158.843166,4.0300588" id="Fill-10" fill="#69BEB6"></path>
            <path d="M155.85747,13 L142.256001,13 C142.087746,15.0277365 139.155154,18.7523526 137,20 L148.883284,20 C151.160671,20 152.127644,19.7414562 153.880964,18.060426 C155.616964,16.3947499 156.40529,15.0128777 156.89719,13.9544329 C157.154521,13.3992075 156.97142,13 155.85747,13" id="Fill-12" fill="#6C9F9A"></path>
            <path d="M139.83494,13.0901403 C139.002458,13.0901403 113.272201,13 110.220775,13 C108.479626,13 107.142105,13.1980048 105.577543,14.5658075 C104.487748,15.5178508 99.949964,19.9889097 100.000417,20.0370183 C100.530683,20.5434243 102.069514,21.606877 103.104314,23 C103.785941,22.4176331 104.391382,21.962374 105.300049,21.2523928 C106.894379,20.0081531 108.701117,20.1565301 111.956374,20.1565301 C112.566861,20.1565301 131.368849,20.2471768 132.724533,20.2471768 C135.046402,20.2471768 136.032262,19.9828328 137.819828,18.2640907 C139.59024,16.5610472 140.39346,15.1481744 140.894967,14.0659847 C141.15783,13.4983035 140.970647,13.0901403 139.83494,13.0901403" id="Fill-14" fill="#69BEB6"></path>
            <path d="M136.857538,21 L123.25602,21 C123.087764,23.02788 120.155161,26.7522644 118,28 L129.882832,28 C132.160722,28 133.127699,27.7414379 134.88053,26.0602887 C136.617031,24.3949901 137.40536,23.0125248 137.897261,21.9540051 C138.154594,21.3992358 137.970997,21 136.857538,21" id="Fill-16" fill="#6C9F9A"></path>
            <path d="M120.831657,21.087555 C119.996676,21.087555 111.506688,21 108.446102,21 C106.699726,21 105.809079,21.3624485 104.783824,22.2433792 C104.481206,22.5035986 103.964024,22.8102858 103.341077,23.4544756 C103.656852,24.5305709 103.303123,26.2068339 103,27.9129341 C103.611814,27.9129341 112.339645,28 113.699905,28 C116.028744,28 117.017564,27.7446719 118.810497,26.0845503 C120.585717,24.4400811 121.391854,23.0749074 121.894867,22.0296276 C122.158012,21.4817972 121.970774,21.087555 120.831657,21.087555" id="Fill-18" fill="#69BEB6"></path>
            <path d="M89.9901114,22.2982977 C89.5422506,21.0317654 88.3053785,20 88.0213561,20 C88.0143498,20 88.0073436,20.0005038 88.0008763,20.0010076 C87.99387,20.0005038 87.9868638,20 87.9803965,20 C87.696374,20 86.459502,21.0317654 86.0111022,22.2982977 C85.9027748,22.6040993 86.6071721,35.6467625 87.2522857,37.8045023 C87.3783982,38.2266797 87.8095518,39 87.99387,39 C88.1323781,39 88.6088029,38.2619452 88.7489278,37.8045023 C89.2927204,36.0321631 90.0984388,22.6040993 89.9901114,22.2982977" id="Fill-20" fill="#7F8184"></path>
            <path d="M88,11.6472 C87.99425,11.6476988 87.9885,11.6476988 87.9822709,11.6481975 L87.9822709,11.6472 C87.6238555,11.6506912 86.3583808,12.5479341 85.4532382,13.7598853 C85.3114054,13.950406 85.2265932,13.9184863 85.2050308,13.6267203 C85.1489685,12.8551612 85.130281,10.8731472 85.1729267,10.7414785 C85.8140494,8.756472 87.5821682,7.14003834 87.9885,7.14003834 C87.9918542,7.14003834 87.9961667,7.14053709 88,7.14053709 L88,0.00299247206 C87.9726876,0.00149623603 87.944896,0 87.918542,0 C86.785796,0 81.8527927,3.97849161 80.0650282,8.86220601 C79.5786758,10.1918611 81.9620423,28.6339677 82.5126029,31.3705834 C82.5878318,31.7441436 82.8245393,32 83.0943091,32 L85.8744242,32 C85.7910495,31.0897897 85.7153415,30.1501535 85.6492167,29.2319633 C85.4546757,26.5227786 85.1547185,21.9103817 85.333447,21.4510372 C85.8054245,20.2365923 87.0536492,18.609685 87.9770001,18.609685 L88,18.609685 L88,11.6472 Z" id="Fill-22" fill="#6D6E6F"></path>
            <path d="M87.9800572,20 C87.6960071,20 86.4590149,21.0317654 86.0111105,22.2982977 C85.9027726,22.6040993 86.6066993,35.6467625 87.2524147,37.8045023 C87.3785394,38.2266797 87.809196,39 87.9935321,39 C87.995149,39 87.998383,38.9969772 88,38.9969772 L88,20.0010076 C87.9929931,20.0005038 87.9865251,20 87.9800572,20" id="Fill-24" fill="#6D6E6F"></path>
            <path d="M1.17849048,4 L15.2054785,4 C15.3789978,6.1812371 18.7769125,10.6582329 21,12 L8.74443911,12 C6.39631569,12 5.39909049,11.7219522 3.59091808,9.9141088 C1.8000976,8.12331047 0.613532297,6.16472468 0.106243735,5.02643318 C-0.159648962,4.42932286 0.0296911348,4 1.17849048,4" id="Fill-27" fill="#6C9F9A"></path>
            <path d="M20.1426599,13 L33.7440348,13 C33.9122891,15.0277365 36.8443664,18.7523526 39,20 L27.1167977,20 C24.8394272,20 23.8724603,19.7414562 22.1191523,18.060426 C20.3831645,16.3947499 19.594844,15.0128777 19.1029478,13.9544329 C18.8451229,13.3992075 19.0292128,13 20.1426599,13" id="Fill-30" fill="#6C9F9A"></path>
            <path d="M36.1650604,13.0901403 C36.9975427,13.0901403 62.7278048,13 65.7792308,13 C67.5203802,13 68.8579018,13.1980048 70.4224639,14.5658075 C71.5117544,15.5178508 76.0495398,19.9889097 76,20.0370183 C75.4698294,20.5434243 73.9304939,21.606877 72.8956932,23 C72.2140668,22.4176331 71.6086251,21.962374 70.699958,21.2523928 C69.1061328,20.0081531 67.2988894,20.1565301 64.0431268,20.1565301 C63.4331444,20.1565301 44.6316577,20.2471768 43.2754684,20.2471768 C40.9535996,20.2471768 39.9677387,19.9828328 38.1801722,18.2640907 C36.4102643,16.5610472 35.606036,15.1481744 35.105033,14.0659847 C34.8421704,13.4983035 35.0293528,13.0901403 36.1650604,13.0901403" id="Fill-32" fill="#69BEB6"></path>
            <path d="M39.1427281,21 L52.7440538,21 C52.9123074,23.02788 55.8443742,26.7522644 58,28 L46.1168406,28 C43.8394784,28 42.8725149,27.7414379 41.1192132,26.0602887 C39.3832318,24.3949901 38.5949141,23.0125248 38.1030197,21.9540051 C37.8451957,21.3992358 38.0287901,21 39.1427281,21" id="Fill-34" fill="#6C9F9A"></path>
            <path d="M55.168444,21.087555 C56.0039029,21.087555 64.4930959,21 67.5535775,21 C69.2998939,21 70.1905103,21.3624485 71.2152251,22.2433792 C71.5183383,22.5035986 72.035503,22.8102858 72.6584284,23.4544756 C72.3426644,24.5305709 72.6963808,26.2068339 73,27.9129341 C72.3877013,27.9129341 63.6601672,28 62.2999532,28 C59.9711938,28 58.9824073,27.7446719 57.1895359,26.0845503 C55.4143756,24.4400811 54.6082666,23.0749074 54.1052708,22.0296276 C53.8416281,21.4817972 54.029872,21.087555 55.168444,21.087555" id="Fill-36" fill="#69BEB6"></path>
            <path d="M17.1569715,4.0300588 C17.9842273,4.0300588 63.8099896,3.9624265 66.9681927,4.0300588 C68.6968617,4.06708378 69.8252567,4.63578753 70.8404113,5.52438712 C71.912186,6.46383436 78.8403907,14.9326822 78.8474056,14.9998208 C78.9025226,15.5428539 78.9791853,16.4433015 78.9977246,16.9256136 C79.0167651,17.4074321 78.9230662,17.5550383 78.4585803,17.9178832 C78.2320997,18.0946157 77.2184482,18.7279898 76.8677038,19 C74.737683,16.7034637 72.1371635,14.2968398 70.4771402,12.9323458 C68.9363701,11.666585 67.7448411,11.4444351 64.5119796,11.4444351 L24.5857386,11.4444351 C22.2798445,11.4444351 21.3007665,11.1867412 19.5254986,9.51123731 C17.7672669,7.85153073 16.6022943,6.03631922 16.1042372,4.98135404 C15.8431831,4.42795395 16.0295787,4.0300588 17.1569715,4.0300588" id="Fill-38" fill="#69BEB6"></path>
        </g>
    </g>
</svg>