<svg xmlns="http://www.w3.org/2000/svg" viewBox="0 0 248.61 237.95"><defs><style>.cls-1{fill:#c5c971;}.cls-2{fill:#d4d47d;}.cls-3,.cls-6,.cls-7,.cls-8,.cls-9{fill:none;stroke-miterlimit:10;}.cls-3{stroke:#a9a754;}.cls-3,.cls-6{stroke-width:5.05px;}.cls-4{fill:#dfe68e;}.cls-5{fill:#eceea0;}.cls-6{stroke:#c6c474;}.cls-7{stroke:#c9c96a;stroke-width:5px;}.cls-8{stroke:#eaeaea;}.cls-8,.cls-9{stroke-width:3.03px;}.cls-9{stroke:#fff;}</style></defs><g id="Layer_2" data-name="Layer 2"><g id="Layer_1-2" data-name="Layer 1"><polygon class="cls-1" points="173.79 49.37 166.61 0 128.33 3.7 66.34 9.79 34.8 13.27 0 21.53 5.87 64.82 14.79 134.64 21.1 172.05 26.32 217.07 38.06 210.98 46.33 220.12 60.03 209.89 70.47 217.94 80.26 206.85 96.14 213.16 173.79 49.37"/><polygon class="cls-2" points="166.61 0 128.33 3.7 66.34 9.79 34.8 13.27 0 21.53 5.87 64.82 11.42 108.28 166.61 0"/><polyline class="cls-3" points="59.16 26.82 88.53 23.34 115.5 19.2"/><polyline class="cls-3" points="36.32 49 63.95 43.56 109.84 38.78"/><line class="cls-3" x1="30.02" y1="81.63" x2="86.57" y2="74.45"/><line class="cls-3" x1="35.89" y1="95.55" x2="87" y2="88.15"/><line class="cls-3" x1="37.41" y1="116.43" x2="89.18" y2="109.9"/><line class="cls-3" x1="47.2" y1="137.53" x2="83.74" y2="132.74"/><line class="cls-3" x1="47.2" y1="160.58" x2="86.78" y2="156.02"/><line class="cls-3" x1="51.77" y1="181.03" x2="85.48" y2="177.33"/><polygon class="cls-4" points="229.9 230.12 240.34 112.67 248.61 42.2 209.46 36.98 131.59 34.8 92.44 31.76 80.69 33.5 80.69 49.59 80.69 94.83 80.26 131.37 79.39 196.63 77.22 231.86 89.83 226.64 100.7 234.91 111.15 227.51 121.15 235.34 133.33 228.38 142.03 236.21 152.91 229.69 162.48 237.08 173.35 230.12 182.49 236.65 193.36 229.25 201.19 236.65 209.46 229.25 217.72 237.95 229.9 230.12"/><polygon class="cls-5" points="248.61 42.2 209.46 36.98 131.59 34.8 92.44 31.76 80.69 33.5 80.69 49.59 80.69 94.83 80.26 131.37 248.61 42.2"/><path class="cls-6" d="M218.38,42.2s-1.74,16.09-2,18.92-2.18,4.78-4.79,4.57c-1.95-.17-3.69-1.74-3.69-4.79s1.74-22.4,1.95-24.79a5.08,5.08,0,0,1,5.44-4.35c2.83.21,5.22,1.08,5,6.09"/><line class="cls-7" x1="137.25" y1="51.96" x2="188.54" y2="54.09"/><line class="cls-7" x1="138.55" y1="62.86" x2="185.49" y2="65.12"/><line class="cls-7" x1="141.82" y1="72.94" x2="147.26" y2="73.05"/><line class="cls-7" x1="151.16" y1="73.56" x2="181.58" y2="75.7"/><line class="cls-7" x1="105.59" y1="100.26" x2="192.06" y2="105.94"/><line class="cls-7" x1="209.43" y1="107.6" x2="217.24" y2="108.41"/><line class="cls-7" x1="105.68" y1="117.02" x2="158.05" y2="120.04"/><line class="cls-7" x1="201.01" y1="125.7" x2="214.05" y2="126.62"/><line class="cls-7" x1="104.63" y1="136.58" x2="166.36" y2="139.57"/><line class="cls-7" x1="201.09" y1="143.11" x2="210.86" y2="144.39"/><line class="cls-7" x1="104.06" y1="154.19" x2="172.06" y2="158.83"/><line class="cls-7" x1="199.41" y1="161.56" x2="209.62" y2="162.42"/><polyline class="cls-7" points="100.33 177.17 183.72 184.09 212.35 188.37"/><line class="cls-7" x1="101.1" y1="192.41" x2="148.67" y2="196.43"/><line class="cls-7" x1="195.99" y1="201.52" x2="205.97" y2="202.6"/><path class="cls-8" d="M217.07,42.2s-1.74,16.09-2,18.92-2.17,4.78-4.78,4.57c-2-.17-3.7-1.74-3.7-4.79s1.74-22.4,2-24.79A5.08,5.08,0,0,1,214,31.76c2.82.21,5.22,1.08,5,6.09"/><path class="cls-9" d="M214.76,42.2s-1.74,16.09-2,18.92-2.18,4.78-4.79,4.57c-1.95-.17-3.69-1.74-3.69-4.79s1.74-22.4,2-24.79a5.08,5.08,0,0,1,5.44-4.35c2.83.21,5.22,1.08,5,6.09"/></g></g></svg>